<svg xmlns="http://www.w3.org/2000/svg" width="16" height="16" viewBox="0 0 16 16"><defs><style>.a,.b{fill:#666;}.a{opacity:0;}</style></defs><g transform="translate(-0.406 0.015)"><g transform="translate(0 0)"><rect class="a" width="16" height="16" transform="translate(0.406 -0.015)"/><path class="b" d="M14.953,13.995l-2.295-2.288A5.346,5.346,0,0,0,13.8,8.4a5.4,5.4,0,1,0-5.4,5.4,5.346,5.346,0,0,0,3.307-1.141l2.288,2.295a.678.678,0,1,0,.958-.958ZM4.35,8.4a4.05,4.05,0,1,1,4.05,4.05A4.05,4.05,0,0,1,4.35,8.4Z" transform="translate(-1.681 -0.941)"/></g></g></svg>